PathFileType  4	(X/Y/Z) C:\Users\antoi\Documents\MyRepositories\mobilecap\ResultsAnalysis
DataRate	CameraRate	NumFrames	NumMarkers	Units	OrigDataRate	OrigDataStartFrame	OrigNumFrames
100.0	100.0	6	51	mm	100.0	17	135
Frame#	Time	r_knee			r_shank_antsup			r_ankle			r_calc			r_5meta			r_toe			L_knee			L_shank_antsup			L_ankle			L_calc			L_5meta			L_toe			r_sh2			r_sh3			r_sh4			L_sh2			L_sh3			r_thigh1			r_thigh2			r_thigh3			r_thigh4			r_thigh5			L_thigh1			L_thigh2			L_thigh3			L_thigh4			r.ASIS			r.PSIS			L.ASIS			L.PSIS			C7			R_Shoulder			L_Shoulder			R_Sternum			L_Sternum			R_humerus			R_elbow_med			R_elbow_lat			R_forearm			R_wrist_radius			R_wrist_ulna			L_humerus			L_elbow_med			L_elbow_lat			L_forearm			L_wrist_radius			L_wrist_ulna			R_HJC			L_HJC			R_HJC_reg			L_HJC_reg			
		X1	Y1	Z1	X2	Y2	Z2	X3	Y3	Z3	X4	Y4	Z4	X5	Y5	Z5	X6	Y6	Z6	X7	Y7	Z7	X8	Y8	Z8	X9	Y9	Z9	X10	Y10	Z10	X11	Y11	Z11	X12	Y12	Z12	X13	Y13	Z13	X14	Y14	Z14	X15	Y15	Z15	X16	Y16	Z16	X17	Y17	Z17	X18	Y18	Z18	X19	Y19	Z19	X20	Y20	Z20	X21	Y21	Z21	X22	Y22	Z22	X23	Y23	Z23	X24	Y24	Z24	X25	Y25	Z25	X26	Y26	Z26	X27	Y27	Z27	X28	Y28	Z28	X29	Y29	Z29	X30	Y30	Z30	X31	Y31	Z31	X32	Y32	Z32	X33	Y33	Z33	X34	Y34	Z34	X35	Y35	Z35	X36	Y36	Z36	X37	Y37	Z37	X38	Y38	Z38	X39	Y39	Z39	X40	Y40	Z40	X41	Y41	Z41	X42	Y42	Z42	X43	Y43	Z43	X44	Y44	Z44	X45	Y45	Z45	X46	Y46	Z46	X47	Y47	Z47	X48	Y48	Z48	X49	Y49	Z49	X50	Y50	Z50	X51	Y51	Z51	

17	0.16000000	263.45976	493.80969	-43.73609	306.95780	427.36577	-65.72919	246.92534	93.83514	-100.73355	181.04697	67.32190	-141.86997	349.65069	44.14766	-65.49503	400.63605	71.77245	-120.02340	173.93956	475.23672	-338.98807	136.28056	387.98752	-344.08055	-136.32920	246.57327	-284.60809	-185.44574	287.12019	-224.13593	-156.15140	121.74096	-318.37724	-98.24955	97.43910	-279.85411	288.61350	312.22246	-52.15902	228.97655	433.99013	-35.41320	213.83886	322.65678	-44.55005	90.33769	463.67403	-330.82750	-7.63862	390.98302	-323.73440	264.09899	816.29167	7.32148	283.47493	703.83242	-5.08163	173.33549	680.27123	9.70664	154.24940	795.27222	26.42215	230.42242	672.52723	21.07006	177.89869	739.29157	-366.40559	203.77171	604.82154	-356.99129	84.52043	721.65044	-301.85946	112.68559	585.47646	-301.88045	254.62786	968.55312	-42.58166	57.88459	1002.42727	-106.11941	237.12210	933.37091	-291.86381	42.90440	996.02726	-206.12163	49.83069	1399.77745	-178.84555	164.83354	1370.66857	-6.94260	121.40102	1371.38218	-362.94588	192.82364	1377.68587	-166.66292	193.10488	1379.06477	-209.81678	179.03618	1236.41810	54.66292	122.29812	1022.75839	19.76861	141.27878	1041.54761	87.35737	221.37269	927.21187	107.63349	266.56309	798.55368	118.93372	238.36292	790.19034	138.78578	155.38954	1259.17552	-422.83347	178.82214	1021.20466	-366.01704	190.57672	1047.54308	-440.63446	301.35693	1008.20177	-427.68222	427.07762	912.95997	-415.57917	409.80965	894.51681	-440.44720	175.14599	888.18417	-50.48163	156.59205	865.49715	-254.86310	185.64818	884.33318	-62.17018	161.02310	873.81238	-226.55878	
18	0.17000000	267.94432	493.77444	-43.13708	310.55289	426.84339	-65.30847	247.02301	93.93727	-100.77178	181.07110	67.38841	-141.88021	349.66199	44.08041	-65.37977	400.68243	71.58588	-119.92312	196.62999	477.85364	-340.19658	160.38940	390.34950	-344.62298	-112.96445	251.30326	-284.95341	-163.34546	291.46680	-224.81767	-131.69536	127.17225	-319.91075	-74.31630	102.86536	-280.55251	291.14596	311.84217	-51.73764	232.76616	434.15525	-34.61448	216.51970	323.01537	-43.86009	114.89223	466.32744	-332.49111	16.32123	394.36744	-325.43597	273.05677	816.31356	8.33045	290.90597	703.66946	-4.22308	180.52944	681.56478	10.53272	163.04972	796.78557	27.43824	237.55551	673.06278	21.87186	191.67688	741.38179	-366.37020	221.58941	607.67101	-357.88592	99.66101	720.76194	-300.63894	131.97685	585.65670	-301.21369	264.93288	969.54347	-41.28682	68.28418	1003.62597	-105.31852	247.87389	934.27479	-290.76372	53.45066	996.90741	-205.37308	60.64353	1401.05332	-176.86573	177.11696	1371.71295	-5.93813	130.48937	1372.28154	-361.62943	203.60561	1378.83970	-165.85671	203.56679	1380.22865	-209.03219	193.41667	1237.61002	55.22531	137.83168	1023.30415	21.78175	158.34084	1042.26866	88.78850	240.40577	928.97441	106.81556	287.54953	800.72078	116.08466	260.18561	792.09488	137.05885	162.50569	1259.31027	-421.56019	182.52475	1021.10440	-364.03987	194.44273	1047.03558	-438.68383	304.13620	1004.08423	-426.32872	426.12526	904.11707	-414.99221	408.43506	886.43233	-439.95444	185.40093	889.24342	-49.38349	167.23379	866.42364	-253.78648	195.84621	885.72690	-60.77764	171.45711	874.68097	-225.28581	
19	0.18000000	272.19389	493.76126	-42.69522	313.83072	426.36159	-64.93215	247.12643	94.07387	-100.83378	181.07991	67.47444	-141.89864	349.68094	44.03697	-65.28145	400.71312	71.42352	-119.83349	219.11982	480.93254	-341.00675	184.58975	392.92695	-344.91387	-88.74697	254.68727	-285.24260	-140.63171	294.15166	-225.32855	-105.75013	131.14395	-321.36300	-48.71161	107.17358	-281.25440	293.34928	311.51464	-51.39620	236.15961	434.36791	-34.09894	218.87723	323.40485	-43.46431	139.16816	468.81058	-333.90140	40.35697	397.06808	-326.98258	281.98858	816.35535	9.01464	298.31978	703.53637	-3.70992	187.77243	682.83758	11.25966	171.86203	798.25172	28.38464	244.76654	673.57949	22.48187	205.35305	743.72743	-366.14814	239.24888	610.89700	-358.44519	114.64588	720.21141	-299.41489	151.09221	586.22208	-300.39643	275.15926	970.55928	-40.11154	78.62168	1004.93652	-104.48654	258.56669	935.35111	-289.74277	63.91174	998.08138	-204.57985	71.41299	1402.45155	-175.00280	189.24211	1372.79094	-5.00742	139.64126	1373.25235	-360.38334	214.32313	1380.04791	-165.10841	213.99011	1381.42939	-208.32091	207.69038	1238.86869	55.65914	153.36414	1023.87274	23.77073	175.42491	1043.08153	90.11471	259.43620	930.89413	105.85308	308.48069	803.10945	113.03124	282.04397	794.23181	135.17292	169.62187	1259.49640	-420.27427	186.05731	1021.16015	-361.90604	198.15230	1046.62077	-436.55167	306.53014	999.87806	-424.99119	424.44220	895.09740	-414.63732	406.27474	878.19852	-439.63730	195.56585	890.35620	-48.38839	177.72884	867.56736	-252.82501	206.00329	887.04033	-59.61149	181.81333	875.76846	-224.21037	
20	0.19000000	276.17938	493.76669	-42.40821	316.81540	425.92432	-64.59472	247.23763	94.23717	-100.92168	181.07136	67.58337	-141.92117	349.70158	44.00516	-65.20538	400.73492	71.28046	-119.76101	241.40279	484.35473	-341.41157	208.78797	395.68374	-345.02017	-63.85921	256.68577	-285.52734	-117.28952	295.16701	-225.69846	-78.62350	133.57560	-322.64333	-21.71018	110.25213	-281.96742	295.24914	311.24364	-51.13518	239.17057	434.62825	-33.85977	220.91672	323.83140	-43.34838	163.08969	471.09038	-335.05434	64.39266	399.05665	-328.31101	290.93834	816.38641	9.39859	305.72002	703.39284	-3.51486	195.05556	684.07513	11.84907	180.69913	799.66491	29.24105	252.00896	674.06447	22.86887	219.04717	746.27494	-365.75137	256.84194	614.43187	-358.66842	129.53992	719.95291	-298.25186	170.03420	587.13201	-299.56067	285.34088	971.60179	-39.03509	88.92654	1006.34514	-103.61963	269.20604	936.67705	-288.78238	74.30240	999.54297	-203.73273	82.14268	1403.97145	-173.25879	201.21274	1373.93908	-4.15443	148.88361	1374.32412	-359.20195	224.99902	1381.30795	-164.41373	224.40554	1382.67125	-207.68149	221.81031	1240.23147	55.98144	168.90294	1024.52906	25.65273	192.50796	1044.02691	91.28205	278.41463	933.01219	104.73123	329.35342	805.80694	109.87721	303.86837	796.65002	133.13351	176.80527	1259.78723	-418.97830	189.44668	1021.44201	-359.57862	201.73438	1046.34066	-434.22234	308.53868	995.63638	-423.66810	422.04091	885.98629	-414.54261	403.27816	869.88449	-439.47398	205.68007	891.51494	-47.50573	188.12041	868.96842	-251.99319	216.16491	888.29947	-58.64993	192.11260	877.11329	-223.30477	
21	0.20000000	279.89465	493.79253	-42.26196	319.55541	425.54926	-64.31746	247.35443	94.41874	-101.02911	181.04885	67.71648	-141.94131	349.70759	43.96169	-65.15829	400.75640	71.15294	-119.70823	263.46404	488.00767	-341.43139	232.88677	398.59065	-344.96951	-38.43242	257.31240	-285.81288	-93.38658	294.49030	-225.97373	-50.42224	134.47907	-323.70605	6.57229	112.12218	-282.65805	296.90661	311.03994	-50.95520	241.86389	434.93479	-33.84289	222.69928	324.29679	-43.44041	186.56162	473.18271	-335.94736	88.35445	400.35395	-329.37572	299.90708	816.37160	9.52551	313.07574	703.20115	-3.58928	202.34326	685.26519	12.28015	189.54470	801.02355	30.00035	259.20150	674.50773	23.03238	232.84756	748.97823	-365.21277	274.43088	618.21083	-358.59496	144.38876	719.94591	-297.22352	188.80655	588.34912	-298.82271	295.49687	972.64277	-38.04174	99.21347	1007.82100	-102.72245	279.78885	938.28835	-287.87043	84.63234	1001.24182	-202.83634	92.83663	1405.58716	-171.62965	213.04008	1375.18369	-3.38244	158.22499	1375.51136	-358.07560	235.64970	1382.60410	-163.76766	234.83475	1383.94820	-207.10392	235.73094	1241.72482	56.21844	184.44734	1025.33143	27.33999	209.54598	1045.13094	92.25143	297.29545	935.36052	103.44681	350.16610	808.87935	106.72074	325.59777	799.39281	130.95177	184.12379	1260.22168	-417.67263	192.75078	1022.00410	-357.02920	205.23421	1046.23088	-431.69807	310.17222	991.41768	-422.34975	418.92547	876.88070	-414.73177	399.40711	861.57049	-439.43351	215.76778	892.68671	-46.74662	198.44095	870.62732	-251.30546	226.34400	889.53239	-57.86354	202.36026	878.71174	-222.53508	
22	0.21000000	283.35117	493.84420	-42.23257	322.10308	425.25631	-64.13087	247.46944	94.61114	-101.14252	181.02126	67.87098	-141.95247	349.67581	43.87574	-65.14800	400.78588	71.04009	-119.67204	285.27328	491.80416	-341.11800	256.80058	401.62565	-344.75160	-12.52280	256.61228	-286.07854	-69.01109	292.11033	-226.21386	-21.09480	133.93932	-324.54421	36.13102	112.88944	-283.25764	298.39142	310.91549	-50.85215	244.32839	435.28403	-33.96711	224.31357	324.79758	-43.64050	209.47336	475.14764	-336.56858	112.18435	401.01013	-330.14578	308.86236	816.27760	9.45339	320.33918	702.93183	-3.86807	209.58008	686.40325	12.55450	198.35922	802.33237	30.67555	266.25303	674.89941	23.00980	246.80071	751.80288	-364.57987	292.03862	622.17681	-358.29288	159.21679	720.15676	-296.40662	207.41156	589.83482	-298.26856	305.63695	973.64058	-37.12107	109.48485	1009.32081	-101.80872	290.30931	940.17794	-287.00091	94.90660	1003.09599	-201.90949	103.49877	1407.25432	-170.10945	224.74140	1376.53612	-2.69245	167.65415	1376.81040	-356.99468	246.28593	1383.91482	-163.16610	245.28247	1385.24750	-206.57280	249.41894	1243.35899	56.39847	199.99257	1026.31830	28.75790	226.47848	1046.40110	93.00206	316.03786	937.95421	102.00885	370.90483	812.35310	103.62111	347.18150	802.48563	128.64168	191.62565	1260.81371	-416.35778	196.04915	1022.87664	-354.24756	208.69931	1046.31346	-428.99453	311.44431	987.27719	-421.02743	415.07590	867.88520	-415.20309	394.63624	853.35047	-439.48021	225.84232	893.82665	-46.11996	208.71542	872.50835	-250.77122	236.53389	890.76164	-57.21935	212.55540	880.52339	-221.86660	
